<svg width="34" height="34" viewBox="0 0 34 34" fill="none" xmlns="http://www.w3.org/2000/svg">
<path d="M3.1875 4.25H5.15055C5.8726 4.25 6.50445 4.73543 6.69049 5.4331L7.23335 7.4688M10.625 20.1875C8.27779 20.1875 6.375 22.0903 6.375 24.4375H28.6875M10.625 20.1875H26.5175C28.1058 16.9283 29.4917 13.5523 30.6591 10.076C23.9134 8.35331 16.8449 7.4375 9.5625 7.4375C8.78362 7.4375 8.0072 7.44798 7.23335 7.4688M10.625 20.1875L7.23335 7.4688M8.5 28.6875C8.5 29.2743 8.0243 29.75 7.4375 29.75C6.8507 29.75 6.375 29.2743 6.375 28.6875C6.375 28.1007 6.8507 27.625 7.4375 27.625C8.0243 27.625 8.5 28.1007 8.5 28.6875ZM26.5625 28.6875C26.5625 29.2743 26.0868 29.75 25.5 29.75C24.9132 29.75 24.4375 29.2743 24.4375 28.6875C24.4375 28.1007 24.9132 27.625 25.5 27.625C26.0868 27.625 26.5625 28.1007 26.5625 28.6875Z" stroke="#FED7AA" stroke-width="1.5" stroke-linecap="round" stroke-linejoin="round"/>
</svg>
